# xmcd
#
# Track frame offsets: 
#        150
#        22721
#        48972
#        68785
#        95294
#        121838
#        135434
#        150791
#        169193
#        193185
#        213768
#        232811
#
# Disc length: 3466 seconds
#
# Revision: 0
# Processed by: cddbd v1.5.1PL2 Copyright (c) Steve Scherf et al.
# Submitted via: ExactAudioCopy v0.95a4
#
DISCID=850d880c
DTITLE=Various Artist - Revolution Records KTAO - The Revolution Coll
DTITLE=ection - Blues
DYEAR=1900
DGENRE=Blues
TTITLE0=Devil Moon - Eric McFadden
TTITLE1=Too Good To Let It Go - The Blue Barbs
TTITLE2=Turned My Upside Down - Sara K.
TTITLE3=Take These Blues Away - Alex Maryol
TTITLE4=They Call Me The Doctor - John Carey
TTITLE5=Crazy Little Dancin' Queen - The HooDoos
TTITLE6=Scrawny Little White Girl - Adrienne Braswell
TTITLE7=Sad But True - The O-Tones
TTITLE8=Work Out West - Jason Daniello
TTITLE9=Thinkin Blues - Leap of Freight
TTITLE10=Well Without Water - Wildsang
TTITLE11=The Y=Usual - Cullen Winter
EXTD=
EXTT0=
EXTT1=
EXTT2=
EXTT3=
EXTT4=
EXTT5=
EXTT6=
EXTT7=
EXTT8=
EXTT9=
EXTT10=
EXTT11=
PLAYORDER=
